<?xml version="1.0" encoding="utf-8"?>
<!-- Generator: Adobe Illustrator 16.0.4, SVG Export Plug-In . SVG Version: 6.00 Build 0)  -->
<!DOCTYPE svg PUBLIC "-//W3C//DTD SVG 1.1//EN" "http://www.w3.org/Graphics/SVG/1.1/DTD/svg11.dtd">
<svg version="1.1" xmlns="http://www.w3.org/2000/svg" xmlns:xlink="http://www.w3.org/1999/xlink" x="0px" y="0px" width="300px"
	 height="300px" viewBox="0 0 300 300" enable-background="new 0 0 300 300" xml:space="preserve">
<g id="Background">
	<rect x="-6.5" y="-11" fill="#EB6144" stroke="#000000" stroke-width="0.5114" stroke-miterlimit="10" width="315" height="318"/>
</g>
<g id="Logo" display="none">
	
		<rect x="-148.119" y="426.337" display="inline" fill="#FFFFFF" stroke="#000000" stroke-width="1.0073" stroke-miterlimit="10" width="588.571" height="85.04"/>
	<g display="inline">
		<path fill="none" d="M153.456,498c0-26.4,0-52.8,0-79.2c90.96,0,181.92,0,272.88,0c0,26.4,0,52.8,0,79.2
			C335.376,498,244.416,498,153.456,498z M254.059,446.54c-1.977-0.76-3.084,0.01-3.09,1.898c-0.001,0.345-0.49,0.949-0.81,0.989
			c-1.616,0.205-3.249,0.278-4.878,0.366c-0.742,0.039-1.49,0.006-2.234,0.006c-0.005-0.119-0.01-0.24-0.014-0.359
			c0.85-0.353,1.699-0.705,2.549-1.057c-2.135-0.525-4.237-0.875-6.354-1.031c-0.789-0.059-1.789,0.105-2.381,0.566
			c-1.332,1.038-2.533,0.196-3.651,0.23c0.744-1.498,1.45-2.919,2.274-4.579c-0.515,0.074-0.812,0.046-0.854,0.134
			c-0.664,1.449-2.082,1.198-3.264,1.503c-0.572,0.148-1.153,0.36-1.658,0.663c-0.795,0.477-1.473,1.088-1.415,2.062
			c0.541,0.415,0.995,0.762,1.702,1.304c-0.595,0.143-0.879,0.284-1.152,0.266c-2.108-0.146-4.215-0.324-6.322-0.49
			c-1.08-0.086-1.578-0.747-1.802-1.738c0.501-0.243,0.943-0.457,1.517-0.733c-2.038-0.453-2.676,0.165-2.24,1.948
			c0.066,0.27,0.08,0.561,0.189,0.812c0.791,1.838,0.706,2.63-0.785,3.827c-0.866,0.696-0.757,1.517-0.654,2.364
			c0.032,0.268,0.395,0.529,0.66,0.717c0.097,0.069,0.504-0.076,0.508-0.138c0.016-0.291-0.095-0.586-0.096-0.881
			c-0.002-0.497,0.043-0.995,0.068-1.493c0.264,0.06,0.688,0.25,0.764,0.156c0.952-1.159,2.32-0.558,3.469-0.837
			c0.684-0.166,1.441-0.03,2.555-0.03c-0.754,0.94-1.266,1.579-1.776,2.218c0.077,0.082,0.155,0.163,0.232,0.245
			c0.639-0.545,1.403-0.998,1.881-1.659c0.53-0.733,1.139-0.887,1.94-0.868c3.275,0.075,6.552,0.188,9.826,0.159
			c1.354-0.012,1.982,0.664,2.374,1.458c-2.019,0-4.088-0.059-6.153,0.012c-5.629,0.19-10.783,1.749-15.113,5.511
			c-5.097,4.43-5.494,11.346-0.848,16.241c1.14,1.2,2.508,2.262,3.943,3.088c6.12,3.524,12.725,3.975,19.507,2.651
			c4.419-0.861,8.335-2.799,11.342-6.249c3.559-4.083,3.675-9.783,0.25-13.968c-2.755-3.366-6.429-5.333-10.595-6.393
			c-1.229-0.312-1.598-1.188-1.947-2.023c1.971,0,3.881-0.024,5.791,0.012c0.836,0.016,1.693,0.065,2.494,0.277
			c0.395,0.104,0.801,0.553,0.994,0.947c0.479,0.973,0.548,1.035,1.124,0.704c0.076-0.737-0.05-1.362,0.206-1.653
			c0.842-0.959,1.19-2.879,0.553-3.921C251.208,447.359,251.211,447.352,254.059,446.54z M307.306,451.984
			c-0.89,0.04-1.93,0.368-2.225,0.036c-0.463-0.521-0.633-1.512-0.553-2.264c0.153-1.451,1.067-2.543,2.205-3.438
			c4.065-3.198,10.803-3.625,15.285-0.962c3.369,2.002,4.62,5.143,3.551,8.91c-0.547,1.93-0.548,1.965-2.554,1.916
			c-1.971-0.048-3.823,0.257-5.433,1.484c-0.814,0.621-1.335,1.414-1.137,2.473c0.205,1.092,1.054,1.581,2.037,1.782
			c1.879,0.385,3.669,0.089,5.275-0.986c0.851-0.568,1.64-1.229,2.49-1.873c1.518,1.058,2.475,2.526,2.839,4.291
			c0.868,4.198-0.048,8.045-2.767,11.355c-3.241,3.949-7.548,5.78-12.606,5.902c-2.766,0.066-5.421-0.353-7.749-2.006
			c-1.401-0.996-2.158-2.354-2.149-4.068c0.004-0.957,0.062-2.15,1.136-2.396c0.616-0.141,1.419,0.536,2.44,0.975
			c0.596-0.459,0.694-1.443,0.487-2.494c-0.2-1.022-0.885-1.567-1.909-1.701c-1.426-0.185-2.506,0.356-3.227,1.582
			c-0.861,1.465-1.191,3.054-0.899,4.73c0.656,3.761,3.361,5.552,6.641,6.691c3.1,1.076,6.309,0.987,9.486,0.479
			c5.313-0.85,9.754-3.284,12.881-7.756c2.842-4.062,3.964-10.594-0.288-15.071c-0.869-0.914-1.874-1.7-2.855-2.581
			c0.27-0.438,0.571-0.906,0.851-1.388c2.407-4.141,1.217-9.079-2.805-11.662c-2.026-1.301-4.271-1.99-6.636-2.251
			c-4.909-0.543-9.583,0.029-13.642,3.172c-1.346,1.043-2.495,2.256-3.071,3.903c-0.521,1.49-0.664,2.977,0.289,4.364
			c0.682,0.993,1.809,1.318,2.979,0.833C306.626,453.572,307.402,452.992,307.306,451.984z M180.538,480.696
			c0.11-1.687,0.22-3.311,0.32-4.936c0.26-4.189,0.55-8.377,1.909-12.394c0.987-2.918,2.672-5.326,5.252-7.078
			c1.297-0.881,2.191-2.098,2.705-3.603c-1.475,1.274-4.055,1.363-4.217,4.041c-0.018,0.288-0.414,0.566-0.659,0.826
			c-2.077,2.2-3.505,4.751-4.122,7.724c-0.384,1.852-0.709,3.716-1.061,5.574c-0.102-3.644-0.151-7.283-0.092-10.921
			c0.153-9.5,8.928-16.174,18.863-12.013c3.479,1.457,5.721,4.131,5.848,8.192c0.099,3.125-1.111,5.475-3.959,6.783
			c-2.992,1.377-5.908,1.136-8.576-0.908c-1.599-1.224-2.413-2.773-1.771-4.812c0.609-1.938,2.061-2.857,3.993-3.134
			c1.009-0.145,1.971-0.224,1.944,1.263c-0.004,0.216,0.117,0.543,0.283,0.637c1.584,0.899,3.188,1.76,4.787,2.631
			c-0.83-2.551-2.955-4.229-5.447-4.745c-2.357-0.489-4.469,0.38-5.561,2.29c-1.082,1.892-0.717,4.143,0.988,5.931
			c1.887,1.976,4.307,2.328,6.854,2.115c3.854-0.321,6.679-3.21,7.037-6.792c0.541-5.425-3.477-10.19-8.899-10.94
			c-2.366-0.327-4.813-0.055-7.177-0.055c0.109-0.05,0.284-0.138,0.465-0.209c9.659-3.856,20.354,3.13,20.674,13.648
			c0.197,6.473,0.07,12.956,0.088,19.435c0.002,0.467,0.001,0.934,0.001,1.431c0.723,0,1.294,0,1.99,0c0-0.558,0-1.028,0-1.499
			c0-5.16,0.019-10.318-0.01-15.478c-0.011-1.833-0.034-3.677-0.226-5.497c-0.734-6.993-6.156-13.057-13.007-14.645
			c-7.244-1.68-14.591,1.274-18.454,7.418c-0.176,0.279-0.377,0.543-0.762,1.092c0-2.732,0-5.118,0-7.557c-0.676,0-1.248,0-1.895,0
			c0,4.664,0,9.249,0,13.834c-0.768-2.925-2.137-5.51-4.055-7.803c-0.703-0.842-1.406-1.637-1.213-2.856
			c0.031-0.193-0.094-0.5-0.25-0.621c-1.278-0.993-2.582-1.954-4.018-3.03c0.188,1.613,1.205,3.216,2.754,4.421
			c3.274,2.545,5.167,5.954,6.022,9.925c1.248,5.788,0.525,11.673,0.759,17.683c-1.266-4.1-2.461-8.021-3.693-11.931
			c-0.227-0.716-0.359-1.33,0.126-2.018c0.216-0.307,0.319-0.896,0.174-1.221c-0.843-1.876-1.774-3.711-2.816-5.846
			c-0.296,3.026,0.103,5.592,1.487,7.981c0.255,0.44,0.529,0.89,0.673,1.371c0.729,2.448,1.466,4.896,2.104,7.367
			c0.766,2.96,1.436,5.944,2.149,8.927C179.356,480.696,179.9,480.696,180.538,480.696z M388.099,444.72
			c-0.766-2.447-1.497-4.78-2.236-7.145c-3.11,1.385-6.295,2.75-9.425,4.231c-0.787,0.372-1.091,0.235-1.506-0.436
			c-0.436-0.702-0.939-1.416-1.57-1.935c-3.109-2.557-6.601-2.961-10.341-1.64c-0.959,0.339-1.903,0.718-2.88,1.089
			c-0.098-0.261-0.173-0.403-0.203-0.555c-0.442-2.201-1.936-3.736-4.074-4.18c-2.208-0.457-3.851,0.469-5.287,2.059
			c-0.586,0.649-1.311,1.212-2.064,1.656c-0.678,0.4-1.497,0.549-2.226,0.873c-0.846,0.377-1.66,0.825-2.488,1.242
			c0.012,0.119,0.023,0.238,0.035,0.357c0.901,0.367,1.817,0.703,2.7,1.111c1.001,0.462,2.299,0.741,2.896,1.532
			c2.086,2.766,5.681,4.073,8.803,1.849c0.124-0.088,0.275-0.138,0.306-0.152c0.729,1.004,1.313,2.054,2.126,2.881
			c1.964,2.002,4.503,2.594,7.22,2.672c0.348,0.01,0.977,0.309,0.985,0.496c0.067,1.462,0.307,3.015-0.694,4.271
			c-1.394,1.748-2.879,3.423-4.469,5.298c0-1.711,0-3.242,0-4.857c-0.47,0.025-0.805,0.043-1.162,0.062c0,8.059,0,16.027,0,24.077
			c0.438-0.04,0.775-0.07,1.2-0.109c0-0.555-0.001-1.028,0-1.501c0.012-4.118-0.065-8.239,0.061-12.354
			c0.123-4.011,2.044-7.036,5.692-8.756c3.716-1.751,7.293-1.306,10.609,1.139c0.168,0.124,0.375,0.194,0.741,0.379
			c-0.089-0.682,0.033-1.383-0.251-1.646c-1.884-1.74-4.322-2.04-6.781-2.268c-0.158-1.654-0.328-3.199-0.435-4.747
			c-0.021-0.301,0.115-0.784,0.331-0.9c1.256-0.675,2.498-1.498,3.854-1.838C381.07,446.099,384.632,445.447,388.099,444.72z
			 M279.982,480.715c0-0.57,0-1.004,0-1.438c0.001-4.317-0.031-8.636,0.01-12.953c0.055-5.761,4.815-9.785,10.447-8.885
			c4.304,0.688,7.39,4.425,7.438,9.114c0.045,4.277,0.011,8.556,0.011,12.833c0,0.427,0,0.853,0,1.304c0.498,0,0.834,0,1.177,0
			c0.047-0.175,0.103-0.286,0.103-0.398c0.005-5.117,0.006-10.234,0.001-15.353c0-0.237-0.04-0.478-0.087-0.712
			c-1.467-7.439-10.332-10.858-16.298-6.192c-1.419,1.109-2.464,2.698-3.667,4.05c-1.667-3.506-4.438-5.833-8.651-6.126
			c-4.177-0.292-7.386,1.451-9.979,4.742c0-1.336,0-2.673,0-4.091c-0.478,0.047-0.813,0.079-1.172,0.115c0,8.031,0,15.969,0,23.934
			c0.431,0,0.794,0,1.228,0c0-0.575,0-1.051,0-1.526c0-4.238-0.051-8.477,0.016-12.714c0.074-4.706,3.209-8.312,7.702-9.009
			c4.29-0.665,8.465,1.795,9.796,5.919c0.41,1.269,0.58,2.66,0.604,3.999c0.075,4.157,0.026,8.316,0.032,12.475
			c0.001,0.305,0.062,0.608,0.097,0.913C279.195,480.715,279.506,480.715,279.982,480.715z M366.388,483.396
			c-0.078-0.102-0.157-0.204-0.235-0.307c-0.315,0.178-0.701,0.293-0.931,0.548c-0.453,0.502-0.876,1.05-1.209,1.637
			c-0.427,0.756-0.992,1.037-1.854,0.962c-0.734-0.064-1.482,0.028-2.225,0.051c-0.002,0.197-0.004,0.394-0.005,0.59
			c0.852,0.058,1.703,0.115,2.611,0.177c-1.097,1.661-2.162,3.196-3.138,4.787c-0.469,0.766-0.735,1.688-0.02,2.454
			c0.772,0.825,1.768,0.684,2.662,0.223c0.839-0.434,1.604-1.011,2.399-1.526c0.364,1.473,0.979,2.116,2.099,1.806
			c1.032-0.287,1.969-0.919,2.945-1.396c0.612,1.515,1.393,1.867,2.933,1.093c0.945-0.475,1.786-1.155,2.676-1.746
			c0.477,2.663,1.551,2.751,5.03,0.42c0.898,2.291,1.76,2.302,5.224,0.065c0.483,1.601,1.574,2.098,3.184,1.292
			c0.902-0.452,1.687-1.142,2.528-1.728c0.506,2.078,1.808,2.652,3.705,1.562c0.681-0.392,1.229-1.006,1.859-1.491
			c0.229-0.177,0.529-0.411,0.775-0.389c0.855,0.081,1.701,0.264,2.215,0.35c0.684,0.735,1.104,1.564,1.749,1.815
			c2.693,1.048,5.492-1.072,5.329-3.962c-0.047-0.83-0.297-1.646-0.419-2.474c-0.118-0.8-0.003-1.421,1.036-1.493
			c0.36-0.024,0.717-0.35,1.031-0.595c0.065-0.051-0.055-0.508-0.1-0.51c-0.451-0.016-1.018-0.142-1.337,0.077
			c-1.017,0.696-1.981,1.481-2.891,2.314c-1.119,1.025-2.129,2.168-3.247,3.194c-0.791,0.726-1.726,1.119-2.896,0.591
			c0.451-0.938,0.973-1.793,1.282-2.719c0.595-1.779-0.388-2.87-2.218-2.487c-0.648,0.135-1.354,0.37-1.851,0.78
			c-1.038,0.856-1.947,1.868-2.921,2.803c-1.264,1.212-2.492,2.467-3.84,3.579c-0.359,0.297-1.095,0.137-1.658,0.187
			c0.032-0.524-0.119-1.167,0.129-1.553c1.055-1.643,2.224-3.212,3.36-4.802c0.22-0.307,0.48-0.584,0.723-0.875
			c-0.075-0.122-0.15-0.244-0.226-0.366c-0.425,0.204-0.976,0.302-1.253,0.631c-0.874,1.037-1.581,2.217-2.473,3.236
			c-1.019,1.165-2.093,2.308-3.291,3.277c-0.487,0.394-1.363,0.306-2.063,0.438c-0.002-0.708-0.171-1.471,0.035-2.111
			c0.251-0.777,0.775-1.483,1.258-2.166c1.568-2.22,3.177-4.412,4.757-6.624c0.255-0.356,0.442-0.761,0.717-1.241
			c-0.333-0.034-0.508-0.098-0.547-0.05c-1.513,1.841-3.014,3.691-4.556,5.591c-1.318-1.301-2.835-0.995-4.107-0.073
			c-1.17,0.848-2.04,2.1-3.103,3.11c-1.263,1.202-2.561,2.373-3.913,3.471c-0.286,0.232-1.025,0.274-1.284,0.066
			c-0.244-0.196-0.32-0.943-0.142-1.265c0.753-1.352,1.614-2.644,2.467-3.938c0.337-0.512,0.753-0.973,1.134-1.456
			c-0.094-0.12-0.187-0.24-0.279-0.36c-0.44,0.272-0.985,0.457-1.304,0.833c-1.136,1.342-2.147,2.789-3.302,4.113
			c-0.618,0.71-1.377,1.34-2.18,1.83c-0.396,0.242-1.035,0.088-1.564,0.113c0.02-0.489-0.138-1.092,0.091-1.446
			c0.906-1.404,1.932-2.732,2.917-4.086c0.235-0.322,0.488-0.632,0.849-1.095c-1.197-0.203-1.585,0.53-2.065,1.055
			c-1.345,1.468-2.619,3.003-4.023,4.409c-0.568,0.57-1.372,0.949-2.131,1.266c-0.328,0.137-0.973,0.031-1.181-0.213
			c-0.195-0.229-0.146-0.869,0.04-1.186c0.765-1.309,1.683-2.528,2.428-3.847c0.731-1.294,1.707-1.881,3.203-1.655
			c0.413,0.062,0.865-0.138,1.3-0.218c-0.02-0.147-0.04-0.295-0.06-0.443c-0.791-0.049-1.582-0.098-2.529-0.156
			C365.196,485.13,365.792,484.263,366.388,483.396z M409.02,479.515c0-9.993,0-19.85,0-29.721c-0.422,0-0.758,0-1.212,0
			c0,3.841,0,7.611,0,11.576c-5.376-8.922-16.02-8.119-20.83-3.319c-5.146,5.135-5.223,13.794-0.104,18.883
			c4.938,4.91,15.561,5.646,20.973-3.33c0,2.141,0,4.025,0,5.911C408.315,479.515,408.626,479.515,409.02,479.515z M308.868,450.174
			c-0.066,0.124-0.133,0.247-0.199,0.37c1.976,0.352,1.641,1.734,1.642,2.951c0.006,6.711-0.018,13.422,0.023,20.132
			c0.006,1.096-0.232,1.931-1.185,2.549c-0.333,0.218-0.536,0.637-0.896,1.085c2.746,0,5.194,0,7.975,0
			c-0.484-0.508-0.681-0.823-0.964-0.992c-1.069-0.634-1.255-1.572-1.247-2.741c0.044-6.79,0.023-13.581,0.021-20.371
			c0-2.108,0.37-4.124,1.405-5.991c0.157-0.283,0.238-0.61,0.354-0.918c-0.084-0.076-0.168-0.153-0.252-0.229
			C313.32,447.403,311.095,448.788,308.868,450.174z M358.564,455.519c0,2.35,0.099,4.585-0.021,6.809
			c-0.225,4.172-2.313,7.23-6.13,8.846c-3.646,1.544-7.216,1.093-10.384-1.399c-2.682-2.109-3.708-5.011-3.725-8.335
			c-0.01-1.947-0.002-3.895-0.002-5.951c-0.511,0.025-0.873,0.044-1.177,0.06c0,3.014-0.39,5.952,0.087,8.743
			c0.811,4.729,3.953,7.729,8.607,8.754c4.816,1.062,8.918-0.379,11.959-4.411c0.236-0.312,0.453-0.639,0.796-1.125
			c0.103,3.563-0.454,5.671-1.97,7.753c-1.925,2.644-4.532,4.067-7.814,4.203c0,0.49,0,0.828,0,1.236c0.572,0,1.09,0.066,1.586-0.01
			c5.137-0.786,9.335-5.359,9.477-10.555c0.129-4.713,0.036-9.433,0.034-14.148c-0.001-0.148-0.077-0.295-0.125-0.469
			C359.415,455.519,359.104,455.519,358.564,455.519z M350.631,495.938c0.554-0.062,1.121-0.066,1.657-0.195
			c3.516-0.846,5.238-3.866,4.175-7.315c-0.47-1.521-1.13-3-1.447-4.55c-0.547-2.672,2.091-5.034,4.681-4.229
			c0.557,0.173,1.227,0.783,1.353,1.311c0.124,0.519-0.227,1.34-0.645,1.744c-0.376,0.364-1.127,0.336-1.709,0.492
			c-0.268,0.071-0.526,0.172-0.79,0.259c0.179,0.216,0.319,0.559,0.543,0.627c1.315,0.404,3.156-0.658,3.548-1.996
			c0.429-1.463-0.417-2.909-2.008-3.279c-3.756-0.873-6.802,2.473-5.761,5.563c0.509,1.51,1.021,3.024,1.415,4.567
			c0.646,2.534-0.524,4.788-2.877,5.748c-2.342,0.955-4.912,0.17-6.21-1.897c-1.43-2.277-0.186-5.479,2.452-5.962
			c0.89-0.162,1.985,0.102,2.801,0.527c0.399,0.209,0.516,1.245,0.469,1.886c-0.019,0.261-0.812,0.462-1.25,0.698
			c-0.243,0.131-0.478,0.278-0.716,0.419c0.203,0.208,0.426,0.607,0.605,0.589c0.529-0.055,1.125-0.156,1.541-0.454
			c0.848-0.605,1.303-1.615,0.877-2.526c-0.367-0.782-1.134-1.613-1.919-1.92c-2.804-1.094-6.326,1.393-6.461,4.414
			C344.816,493.569,347.231,495.882,350.631,495.938z M391.376,485.157c0.409-0.533,0.729-0.835,0.872-1.204
			c0.044-0.115-0.5-0.637-0.591-0.593c-0.362,0.176-0.712,0.462-0.933,0.796C390.659,484.255,391.031,484.644,391.376,485.157z"/>
		<path fill-rule="evenodd" clip-rule="evenodd" d="M254.059,446.54c-2.848,0.812-2.851,0.819-1.373,3.233
			c0.638,1.042,0.289,2.962-0.553,3.921c-0.256,0.291-0.13,0.916-0.206,1.653c-0.576,0.331-0.646,0.269-1.124-0.704
			c-0.193-0.395-0.6-0.844-0.994-0.947c-0.801-0.212-1.658-0.262-2.494-0.277c-1.91-0.036-3.82-0.012-5.791-0.012
			c0.35,0.835,0.719,1.711,1.947,2.023c4.166,1.06,7.84,3.026,10.595,6.393c3.425,4.185,3.309,9.885-0.25,13.968
			c-3.007,3.45-6.923,5.388-11.342,6.249c-6.782,1.323-13.387,0.873-19.507-2.651c-1.436-0.826-2.804-1.888-3.943-3.088
			c-4.646-4.896-4.249-11.812,0.848-16.241c4.33-3.762,9.484-5.32,15.113-5.511c2.065-0.07,4.135-0.012,6.153-0.012
			c-0.392-0.794-1.021-1.47-2.374-1.458c-3.274,0.029-6.551-0.084-9.826-0.159c-0.802-0.019-1.41,0.135-1.94,0.868
			c-0.478,0.661-1.242,1.114-1.881,1.659c-0.077-0.082-0.155-0.163-0.232-0.245c0.511-0.639,1.022-1.277,1.776-2.218
			c-1.113,0-1.871-0.136-2.555,0.03c-1.148,0.279-2.517-0.322-3.469,0.837c-0.076,0.094-0.5-0.097-0.764-0.156
			c-0.025,0.498-0.07,0.996-0.068,1.493c0.001,0.295,0.111,0.59,0.096,0.881c-0.004,0.062-0.411,0.207-0.508,0.138
			c-0.266-0.188-0.628-0.449-0.66-0.717c-0.103-0.848-0.212-1.668,0.654-2.364c1.491-1.197,1.576-1.989,0.785-3.827
			c-0.109-0.251-0.123-0.542-0.189-0.812c-0.436-1.783,0.202-2.401,2.24-1.948c-0.573,0.276-1.016,0.49-1.517,0.733
			c0.224,0.991,0.722,1.652,1.802,1.738c2.107,0.166,4.214,0.344,6.322,0.49c0.273,0.019,0.558-0.123,1.152-0.266
			c-0.707-0.542-1.161-0.889-1.702-1.304c-0.058-0.974,0.62-1.585,1.415-2.062c0.505-0.303,1.086-0.515,1.658-0.663
			c1.182-0.305,2.6-0.054,3.264-1.503c0.041-0.088,0.339-0.06,0.854-0.134c-0.824,1.66-1.53,3.081-2.274,4.579
			c1.118-0.034,2.319,0.808,3.651-0.23c0.592-0.461,1.592-0.625,2.381-0.566c2.116,0.156,4.219,0.506,6.354,1.031
			c-0.85,0.352-1.699,0.704-2.549,1.057c0.004,0.119,0.009,0.24,0.014,0.359c0.744,0,1.492,0.033,2.234-0.006
			c1.629-0.088,3.262-0.161,4.878-0.366c0.319-0.04,0.809-0.645,0.81-0.989C250.975,446.55,252.082,445.78,254.059,446.54z
			 M250.455,466.954c-0.162,0.063-0.324,0.128-0.486,0.191c-0.979-1.825-2.553-2.967-4.348-3.781
			c-2.523-1.144-3.559-3.155-3.586-5.793c-0.008-0.672-0.173-0.978-0.895-1.109c-2.979-0.546-5.961-0.603-8.947-0.174
			c-4.338,0.624-8.256,2.201-11.376,5.384c-3.757,3.831-4.025,9.436-0.46,13.299c1.379,1.495,3.118,2.769,4.908,3.755
			c4.307,2.371,9.035,2.778,13.85,2.317c4.227-0.405,8.086-1.793,11.392-4.55c5.14-4.285,5.288-10.953,0.308-15.401
			c-1.991-1.777-4.276-3.067-6.821-3.884c-0.286-0.092-0.585-0.138-0.903-0.211c-0.296,1.125,0.476,1.28,1.146,1.519
			c2.541,0.904,4.546,2.308,5.057,5.21c0.12,0.68,0.479,1.316,0.721,1.976C250.166,466.116,250.308,466.536,250.455,466.954z
			 M248.157,464.501c0.139-0.114,0.278-0.228,0.416-0.341c-0.493-1.186-0.806-2.502-1.538-3.513
			c-0.551-0.761-1.643-1.129-2.492-1.672c-0.062,0.1-0.123,0.199-0.184,0.299c0.586,0.383,1.174,0.766,1.76,1.149
			c-0.375,0.071-0.607-0.094-0.865-0.156c-0.473-0.113-0.959-0.166-1.44-0.244c0.132,0.502,0.103,1.193,0.427,1.473
			C245.484,462.569,246.842,463.511,248.157,464.501z M243.363,448.366c-1.453-0.227-2.623-0.487-3.806-0.566
			c-0.685-0.045-1.413,0.128-2.072,0.348c-0.291,0.098-0.657,0.576-0.63,0.846c0.026,0.255,0.502,0.625,0.814,0.664
			C239.605,449.892,241.459,449.64,243.363,448.366z M233.49,445.315c-1.186,0.286-2.299,0.477-3.354,0.838
			c-0.642,0.219-1.095,0.862-0.612,1.506c0.316,0.424,1.006,0.853,1.486,0.81C232.047,448.376,233.314,446.72,233.49,445.315z
			 M235.717,449.626c-1.707-1.146-3.996-1.077-4.621,0C232.57,449.626,234.028,449.626,235.717,449.626z"/>
		<path fill-rule="evenodd" clip-rule="evenodd" d="M307.306,451.984c0.097,1.008-0.68,1.588-1.632,1.982
			c-1.17,0.485-2.297,0.16-2.979-0.833c-0.953-1.388-0.81-2.874-0.289-4.364c0.576-1.647,1.726-2.86,3.071-3.903
			c4.059-3.143,8.732-3.715,13.642-3.172c2.364,0.261,4.609,0.95,6.636,2.251c4.021,2.583,5.212,7.521,2.805,11.662
			c-0.279,0.481-0.581,0.95-0.851,1.388c0.981,0.881,1.986,1.667,2.855,2.581c4.252,4.478,3.13,11.009,0.288,15.071
			c-3.127,4.472-7.567,6.906-12.881,7.756c-3.178,0.509-6.387,0.598-9.486-0.479c-3.279-1.14-5.984-2.931-6.641-6.691
			c-0.292-1.677,0.038-3.266,0.899-4.73c0.721-1.226,1.801-1.767,3.227-1.582c1.024,0.134,1.709,0.679,1.909,1.701
			c0.207,1.051,0.108,2.035-0.487,2.494c-1.021-0.438-1.824-1.115-2.44-0.975c-1.073,0.245-1.132,1.438-1.136,2.396
			c-0.009,1.714,0.748,3.072,2.149,4.068c2.328,1.653,4.983,2.072,7.749,2.006c5.059-0.122,9.365-1.953,12.606-5.902
			c2.719-3.311,3.635-7.157,2.767-11.355c-0.364-1.765-1.321-3.233-2.839-4.291c-0.851,0.645-1.64,1.305-2.49,1.873
			c-1.606,1.075-3.396,1.371-5.275,0.986c-0.983-0.201-1.832-0.69-2.037-1.782c-0.198-1.059,0.322-1.852,1.137-2.473
			c1.609-1.228,3.462-1.532,5.433-1.484c2.006,0.049,2.007,0.014,2.554-1.916c1.069-3.768-0.182-6.908-3.551-8.91
			c-4.482-2.663-11.22-2.236-15.285,0.962c-1.138,0.896-2.052,1.987-2.205,3.438c-0.08,0.752,0.09,1.742,0.553,2.264
			C305.376,452.353,306.416,452.024,307.306,451.984z M323.736,458.046c-1.605-0.418-3.167-0.469-4.59,0.465
			c-0.327,0.215-0.612,0.782-0.58,1.158c0.022,0.267,0.58,0.606,0.953,0.703C320.959,460.743,322.887,459.662,323.736,458.046z"/>
		<path fill-rule="evenodd" clip-rule="evenodd" d="M180.538,480.696c-0.638,0-1.182,0-1.688,0
			c-0.714-2.982-1.384-5.967-2.149-8.927c-0.639-2.472-1.376-4.919-2.104-7.367c-0.144-0.481-0.418-0.931-0.673-1.371
			c-1.385-2.39-1.783-4.955-1.487-7.981c1.042,2.135,1.974,3.97,2.816,5.846c0.146,0.325,0.042,0.914-0.174,1.221
			c-0.485,0.688-0.353,1.302-0.126,2.018c1.232,3.91,2.428,7.831,3.693,11.931c-0.233-6.01,0.489-11.895-0.759-17.683
			c-0.855-3.971-2.748-7.38-6.022-9.925c-1.549-1.205-2.566-2.808-2.754-4.421c1.436,1.076,2.739,2.037,4.018,3.03
			c0.156,0.121,0.281,0.428,0.25,0.621c-0.193,1.22,0.51,2.015,1.213,2.856c1.918,2.293,3.287,4.878,4.055,7.803
			c0-4.585,0-9.17,0-13.834c0.646,0,1.219,0,1.895,0c0,2.438,0,4.824,0,7.557c0.385-0.549,0.586-0.812,0.762-1.092
			c3.863-6.144,11.21-9.098,18.454-7.418c6.851,1.588,12.272,7.651,13.007,14.645c0.191,1.82,0.215,3.664,0.226,5.497
			c0.028,5.159,0.01,10.317,0.01,15.478c0,0.471,0,0.941,0,1.499c-0.696,0-1.268,0-1.99,0c0-0.497,0.001-0.964-0.001-1.431
			c-0.018-6.479,0.109-12.962-0.088-19.435c-0.32-10.519-11.015-17.505-20.674-13.648c-0.181,0.071-0.355,0.159-0.465,0.209
			c2.363,0,4.811-0.272,7.177,0.055c5.423,0.75,9.44,5.516,8.899,10.94c-0.358,3.582-3.184,6.471-7.037,6.792
			c-2.547,0.213-4.967-0.14-6.854-2.115c-1.705-1.788-2.07-4.039-0.988-5.931c1.092-1.91,3.203-2.779,5.561-2.29
			c2.492,0.517,4.617,2.194,5.447,4.745c-1.599-0.871-3.203-1.731-4.787-2.631c-0.166-0.094-0.287-0.421-0.283-0.637
			c0.026-1.486-0.936-1.407-1.944-1.263c-1.933,0.276-3.384,1.196-3.993,3.134c-0.642,2.039,0.173,3.589,1.771,4.812
			c2.668,2.044,5.584,2.285,8.576,0.908c2.848-1.309,4.058-3.658,3.959-6.783c-0.127-4.062-2.368-6.735-5.848-8.192
			c-9.936-4.161-18.71,2.513-18.863,12.013c-0.06,3.638-0.01,7.277,0.092,10.921c0.352-1.858,0.677-3.723,1.061-5.574
			c0.617-2.973,2.045-5.523,4.122-7.724c0.245-0.26,0.642-0.538,0.659-0.826c0.162-2.678,2.742-2.767,4.217-4.041
			c-0.514,1.505-1.408,2.722-2.705,3.603c-2.58,1.752-4.265,4.16-5.252,7.078c-1.359,4.017-1.649,8.204-1.909,12.394
			C180.758,477.386,180.648,479.01,180.538,480.696z"/>
		<path fill-rule="evenodd" clip-rule="evenodd" d="M388.099,444.72c-3.467,0.728-7.028,1.379-10.533,2.257
			c-1.356,0.34-2.599,1.163-3.854,1.838c-0.216,0.116-0.352,0.6-0.331,0.9c0.106,1.548,0.276,3.093,0.435,4.747
			c2.459,0.228,4.897,0.527,6.781,2.268c0.284,0.263,0.162,0.964,0.251,1.646c-0.366-0.185-0.573-0.255-0.741-0.379
			c-3.316-2.444-6.894-2.89-10.609-1.139c-3.648,1.72-5.569,4.745-5.692,8.756c-0.126,4.114-0.049,8.235-0.061,12.354
			c-0.001,0.473,0,0.946,0,1.501c-0.425,0.039-0.762,0.069-1.2,0.109c0-8.05,0-16.019,0-24.077c0.357-0.019,0.692-0.036,1.162-0.062
			c0,1.615,0,3.146,0,4.857c1.59-1.875,3.075-3.55,4.469-5.298c1.001-1.256,0.762-2.809,0.694-4.271
			c-0.009-0.188-0.638-0.486-0.985-0.496c-2.717-0.078-5.256-0.67-7.22-2.672c-0.812-0.827-1.397-1.877-2.126-2.881
			c-0.03,0.015-0.182,0.064-0.306,0.152c-3.122,2.225-6.717,0.917-8.803-1.849c-0.597-0.791-1.895-1.07-2.896-1.532
			c-0.883-0.408-1.799-0.744-2.7-1.111c-0.012-0.119-0.023-0.238-0.035-0.357c0.828-0.417,1.643-0.865,2.488-1.242
			c0.729-0.324,1.548-0.473,2.226-0.873c0.754-0.444,1.479-1.007,2.064-1.656c1.437-1.59,3.079-2.516,5.287-2.059
			c2.139,0.443,3.632,1.979,4.074,4.18c0.03,0.151,0.105,0.294,0.203,0.555c0.977-0.371,1.921-0.75,2.88-1.089
			c3.74-1.321,7.231-0.917,10.341,1.64c0.631,0.519,1.135,1.232,1.57,1.935c0.415,0.671,0.719,0.808,1.506,0.436
			c3.13-1.481,6.314-2.847,9.425-4.231C386.602,439.939,387.333,442.272,388.099,444.72z M385.22,438.618
			c-2.866,1.315-5.666,2.564-8.429,3.889c-0.985,0.473-1.733,0.662-2.354-0.513c-1.932-3.659-7.593-5.47-11.76-3.29
			c-0.966,0.505-2.045,0.791-3.175,1.217c-0.13-0.603-0.243-1.096-0.341-1.592c-0.379-1.938-1.57-3.018-3.479-3.465
			c-2.317-0.544-4.348,0.836-5.245,3.019c-1.431,3.481-0.9,5.539,2.912,7.114c1.225,0.505,2.383,0.521,3.526-0.261
			c0.68-0.465,1.432-0.825,2.152-1.233c0.121,0.132,0.23,0.205,0.275,0.307c0.113,0.256,0.208,0.52,0.292,0.785
			c0.761,2.419,2.652,3.661,4.865,4.395c3.078,1.02,6.071,0.463,8.934-0.937c1.069-0.522,2.065-1.296,3.19-1.583
			c2.817-0.719,5.688-1.22,8.537-1.817c0.607-0.128,1.208-0.292,1.898-0.461c-0.193-0.683-0.339-1.198-0.515-1.822
			c-2.577,0.731-5.014,1.423-7.449,2.114c-0.028-0.096-0.056-0.192-0.083-0.289c2.42-0.746,4.84-1.492,7.358-2.269
			c-0.157-0.569-0.299-1.085-0.476-1.726c-2.581,1.053-5.031,2.053-7.48,3.053c0.233-0.435,0.572-0.621,0.927-0.771
			c1.836-0.781,3.659-1.596,5.522-2.309C385.62,439.868,385.674,439.471,385.22,438.618z M369.71,454.943
			c2.564-0.034,3.812-2.777,2.608-5.608c-0.643,0.16-1.322,0.261-1.938,0.515c-0.287,0.118-0.627,0.524-0.642,0.815
			C369.673,452.054,369.71,453.448,369.71,454.943z M345.462,439.882c0.014,0.127,0.027,0.253,0.041,0.379
			c1.173,0.486,2.347,0.973,3.614,1.497c0.094-1.203,0.175-2.244,0.27-3.47C347.981,438.858,346.722,439.37,345.462,439.882z"/>
		<path fill-rule="evenodd" clip-rule="evenodd" d="M279.982,480.715c-0.477,0-0.787,0-1.192,0
			c-0.034-0.305-0.096-0.608-0.097-0.913c-0.006-4.158,0.043-8.317-0.032-12.475c-0.024-1.339-0.194-2.73-0.604-3.999
			c-1.331-4.124-5.506-6.584-9.796-5.919c-4.493,0.697-7.628,4.303-7.702,9.009c-0.066,4.237-0.016,8.476-0.016,12.714
			c0,0.476,0,0.951,0,1.526c-0.434,0-0.797,0-1.228,0c0-7.965,0-15.902,0-23.934c0.358-0.036,0.694-0.068,1.172-0.115
			c0,1.418,0,2.755,0,4.091c2.593-3.291,5.802-5.034,9.979-4.742c4.214,0.293,6.984,2.62,8.651,6.126
			c1.203-1.352,2.248-2.94,3.667-4.05c5.966-4.666,14.831-1.247,16.298,6.192c0.047,0.234,0.087,0.475,0.087,0.712
			c0.005,5.118,0.004,10.235-0.001,15.353c0,0.112-0.056,0.224-0.103,0.398c-0.343,0-0.679,0-1.177,0c0-0.451,0-0.877,0-1.304
			c0-4.277,0.034-8.556-0.011-12.833c-0.049-4.689-3.135-8.427-7.438-9.114c-5.632-0.9-10.393,3.124-10.447,8.885
			c-0.041,4.317-0.009,8.636-0.01,12.953C279.982,479.711,279.982,480.145,279.982,480.715z"/>
		<path fill-rule="evenodd" clip-rule="evenodd" d="M366.388,483.396c-0.596,0.867-1.191,1.734-1.889,2.748
			c0.947,0.059,1.738,0.107,2.529,0.156c0.02,0.148,0.04,0.296,0.06,0.443c-0.435,0.08-0.887,0.279-1.3,0.218
			c-1.496-0.226-2.472,0.361-3.203,1.655c-0.745,1.318-1.663,2.538-2.428,3.847c-0.186,0.316-0.235,0.957-0.04,1.186
			c0.208,0.244,0.853,0.35,1.181,0.213c0.759-0.316,1.562-0.695,2.131-1.266c1.404-1.406,2.679-2.941,4.023-4.409
			c0.48-0.524,0.868-1.258,2.065-1.055c-0.36,0.463-0.613,0.772-0.849,1.095c-0.985,1.354-2.011,2.682-2.917,4.086
			c-0.229,0.354-0.071,0.957-0.091,1.446c0.529-0.025,1.168,0.129,1.564-0.113c0.803-0.49,1.562-1.12,2.18-1.83
			c1.154-1.324,2.166-2.771,3.302-4.113c0.318-0.376,0.863-0.561,1.304-0.833c0.093,0.12,0.186,0.24,0.279,0.36
			c-0.381,0.483-0.797,0.944-1.134,1.456c-0.853,1.294-1.714,2.586-2.467,3.938c-0.179,0.321-0.103,1.068,0.142,1.265
			c0.259,0.208,0.998,0.166,1.284-0.066c1.353-1.098,2.65-2.269,3.913-3.471c1.062-1.011,1.933-2.263,3.103-3.11
			c1.272-0.922,2.789-1.228,4.107,0.073c1.542-1.899,3.043-3.75,4.556-5.591c0.039-0.048,0.214,0.016,0.547,0.05
			c-0.274,0.48-0.462,0.885-0.717,1.241c-1.58,2.212-3.188,4.404-4.757,6.624c-0.482,0.683-1.007,1.389-1.258,2.166
			c-0.206,0.641-0.037,1.403-0.035,2.111c0.7-0.132,1.576-0.044,2.063-0.438c1.198-0.97,2.272-2.112,3.291-3.277
			c0.892-1.02,1.599-2.199,2.473-3.236c0.277-0.329,0.828-0.427,1.253-0.631c0.075,0.122,0.15,0.244,0.226,0.366
			c-0.242,0.291-0.503,0.568-0.723,0.875c-1.137,1.59-2.306,3.159-3.36,4.802c-0.248,0.386-0.097,1.028-0.129,1.553
			c0.563-0.05,1.299,0.11,1.658-0.187c1.348-1.112,2.576-2.367,3.84-3.579c0.974-0.935,1.883-1.946,2.921-2.803
			c0.497-0.41,1.202-0.646,1.851-0.78c1.83-0.383,2.812,0.708,2.218,2.487c-0.31,0.926-0.831,1.78-1.282,2.719
			c1.171,0.528,2.105,0.135,2.896-0.591c1.118-1.026,2.128-2.169,3.247-3.194c0.909-0.833,1.874-1.618,2.891-2.314
			c0.319-0.219,0.886-0.093,1.337-0.077c0.045,0.002,0.165,0.459,0.1,0.51c-0.314,0.245-0.671,0.57-1.031,0.595
			c-1.039,0.072-1.154,0.693-1.036,1.493c0.122,0.827,0.372,1.644,0.419,2.474c0.163,2.89-2.636,5.01-5.329,3.962
			c-0.646-0.251-1.065-1.08-1.749-1.815c-0.514-0.086-1.359-0.269-2.215-0.35c-0.246-0.022-0.547,0.212-0.775,0.389
			c-0.63,0.485-1.179,1.1-1.859,1.491c-1.897,1.091-3.199,0.517-3.705-1.562c-0.842,0.586-1.626,1.275-2.528,1.728
			c-1.609,0.806-2.7,0.309-3.184-1.292c-3.464,2.236-4.325,2.226-5.224-0.065c-3.479,2.331-4.554,2.243-5.03-0.42
			c-0.89,0.591-1.73,1.271-2.676,1.746c-1.54,0.774-2.32,0.422-2.933-1.093c-0.977,0.478-1.913,1.109-2.945,1.396
			c-1.12,0.311-1.734-0.333-2.098-1.805c-0.797,0.515-1.562,1.092-2.4,1.525c-0.895,0.461-1.89,0.603-2.662-0.223
			c-0.716-0.767-0.449-1.688,0.02-2.454c0.976-1.591,2.041-3.126,3.138-4.787c-0.908-0.062-1.76-0.119-2.611-0.177
			c0.001-0.196,0.003-0.393,0.005-0.59c0.742-0.022,1.49-0.115,2.225-0.051c0.862,0.075,1.428-0.206,1.854-0.962
			c0.333-0.587,0.756-1.135,1.209-1.637c0.229-0.255,0.615-0.37,0.931-0.548C366.23,483.191,366.31,483.294,366.388,483.396z
			 M392.858,494.11c1.557-0.021,3.607-1.964,3.895-3.168c0.149-0.629,0.682-1.161,1.006-1.756c0.237-0.438,0.416-0.905,0.621-1.36
			c-0.434-0.187-0.888-0.568-1.299-0.527c-1.982,0.198-5.012,3.631-5.01,5.575C392.071,493.614,392.367,494.106,392.858,494.11z
			 M376.164,492.655c-0.052,1.131,0.51,1.563,1.565,1.172c0.293-0.108,0.614-0.267,0.809-0.497c1.228-1.459,2.458-2.921,3.604-4.444
			c0.228-0.305,0.281-1.035,0.073-1.292c-0.226-0.277-0.869-0.36-1.3-0.303C378.988,487.549,376.254,490.684,376.164,492.655z
			 M403.022,490.188c0.466,0.408,0.803,0.704,1.141,1c-0.059,0.113-0.117,0.227-0.175,0.339c-1.079-0.452-2.004-0.32-2.644,0.649
			c-0.449,0.682-0.368,1.312,0.446,1.653c1.833,0.767,4.222-0.956,4.041-2.945c-0.085-0.932-0.35-1.848-0.558-2.901
			c-0.266,0.204-0.426,0.3-0.552,0.429C404.143,489.006,403.573,489.61,403.022,490.188z"/>
		<path fill-rule="evenodd" clip-rule="evenodd" d="M409.02,479.515c-0.394,0-0.704,0-1.174,0c0-1.886,0-3.771,0-5.911
			c-5.412,8.976-16.035,8.24-20.973,3.33c-5.118-5.089-5.041-13.748,0.104-18.883c4.811-4.8,15.454-5.603,20.83,3.319
			c0-3.965,0-7.735,0-11.576c0.454,0,0.79,0,1.212,0C409.02,459.665,409.02,469.521,409.02,479.515z M396.094,479.223
			c6.438-0.03,11.728-5.294,11.707-11.649c-0.021-6.469-5.326-11.786-11.732-11.758c-6.515,0.028-11.748,5.307-11.677,11.776
			C384.463,474.077,389.671,479.253,396.094,479.223z"/>
		<path fill-rule="evenodd" clip-rule="evenodd" d="M308.868,450.174c2.227-1.386,4.452-2.771,6.678-4.156
			c0.084,0.076,0.168,0.153,0.252,0.229c-0.116,0.308-0.197,0.635-0.354,0.918c-1.035,1.867-1.405,3.883-1.405,5.991
			c0.003,6.79,0.023,13.581-0.021,20.371c-0.008,1.169,0.178,2.107,1.247,2.741c0.283,0.169,0.479,0.484,0.964,0.992
			c-2.78,0-5.229,0-7.975,0c0.359-0.448,0.562-0.867,0.896-1.085c0.952-0.618,1.19-1.453,1.185-2.549
			c-0.041-6.71-0.018-13.421-0.023-20.132c-0.001-1.217,0.334-2.6-1.642-2.951C308.735,450.421,308.802,450.298,308.868,450.174z"/>
		<path fill-rule="evenodd" clip-rule="evenodd" d="M358.564,455.519c0.54,0,0.851,0,1.199,0c0.048,0.174,0.124,0.32,0.125,0.469
			c0.002,4.716,0.095,9.436-0.034,14.148c-0.142,5.195-4.34,9.769-9.477,10.555c-0.496,0.076-1.014,0.01-1.586,0.01
			c0-0.408,0-0.746,0-1.236c3.282-0.136,5.89-1.56,7.814-4.203c1.516-2.082,2.072-4.189,1.97-7.753
			c-0.343,0.486-0.56,0.812-0.796,1.125c-3.041,4.032-7.143,5.473-11.959,4.411c-4.654-1.025-7.797-4.024-8.607-8.754
			c-0.477-2.791-0.087-5.729-0.087-8.743c0.304-0.016,0.666-0.034,1.177-0.06c0,2.057-0.008,4.004,0.002,5.951
			c0.017,3.324,1.043,6.226,3.725,8.335c3.168,2.492,6.738,2.943,10.384,1.399c3.816-1.615,5.905-4.674,6.13-8.846
			C358.663,460.104,358.564,457.868,358.564,455.519z"/>
		<path fill-rule="evenodd" clip-rule="evenodd" d="M350.631,495.938c-3.399-0.057-5.814-2.369-5.676-5.48
			c0.135-3.021,3.657-5.508,6.461-4.414c0.785,0.307,1.552,1.138,1.919,1.92c0.426,0.911-0.029,1.921-0.877,2.526
			c-0.416,0.298-1.012,0.399-1.541,0.454c-0.18,0.019-0.402-0.381-0.605-0.589c0.238-0.141,0.473-0.288,0.716-0.419
			c0.438-0.236,1.231-0.438,1.25-0.698c0.047-0.641-0.069-1.677-0.469-1.886c-0.815-0.426-1.911-0.689-2.801-0.527
			c-2.638,0.483-3.882,3.685-2.452,5.962c1.298,2.067,3.868,2.853,6.21,1.897c2.353-0.96,3.522-3.214,2.877-5.748
			c-0.394-1.543-0.906-3.058-1.415-4.567c-1.041-3.091,2.005-6.437,5.761-5.563c1.591,0.37,2.437,1.816,2.008,3.279
			c-0.392,1.338-2.232,2.4-3.548,1.996c-0.224-0.068-0.364-0.411-0.543-0.627c0.264-0.087,0.522-0.188,0.79-0.259
			c0.582-0.156,1.333-0.128,1.709-0.492c0.418-0.404,0.769-1.226,0.645-1.744c-0.126-0.527-0.796-1.138-1.353-1.311
			c-2.59-0.805-5.228,1.558-4.681,4.229c0.317,1.55,0.978,3.028,1.447,4.55c1.063,3.449-0.659,6.47-4.175,7.315
			C351.752,495.872,351.185,495.876,350.631,495.938z"/>
		<path fill-rule="evenodd" clip-rule="evenodd" d="M391.376,485.157c-0.345-0.514-0.717-0.902-0.651-1.001
			c0.221-0.334,0.57-0.62,0.933-0.796c0.091-0.044,0.635,0.478,0.591,0.593C392.105,484.322,391.785,484.624,391.376,485.157z"/>
		<path fill-rule="evenodd" clip-rule="evenodd" fill="none" d="M250.455,466.954c-0.147-0.418-0.289-0.838-0.442-1.253
			c-0.242-0.659-0.601-1.296-0.721-1.976c-0.511-2.902-2.516-4.306-5.057-5.21c-0.67-0.238-1.441-0.394-1.146-1.519
			c0.318,0.073,0.617,0.119,0.903,0.211c2.545,0.816,4.83,2.106,6.821,3.884c4.98,4.448,4.832,11.116-0.308,15.401
			c-3.306,2.757-7.165,4.145-11.392,4.55c-4.814,0.461-9.543,0.054-13.85-2.317c-1.79-0.986-3.529-2.26-4.908-3.755
			c-3.565-3.863-3.297-9.468,0.46-13.299c3.12-3.183,7.038-4.76,11.376-5.384c2.986-0.429,5.969-0.372,8.947,0.174
			c0.722,0.132,0.887,0.438,0.895,1.109c0.027,2.638,1.062,4.649,3.586,5.793c1.795,0.814,3.369,1.956,4.348,3.781
			C250.131,467.082,250.293,467.018,250.455,466.954z"/>
		<path fill-rule="evenodd" clip-rule="evenodd" fill="none" d="M248.157,464.501c-1.315-0.99-2.673-1.932-3.917-3.005
			c-0.324-0.279-0.295-0.971-0.427-1.473c0.481,0.078,0.968,0.131,1.44,0.244c0.258,0.062,0.49,0.228,0.865,0.156
			c-0.586-0.384-1.174-0.767-1.76-1.149c0.061-0.1,0.122-0.199,0.184-0.299c0.85,0.543,1.941,0.911,2.492,1.672
			c0.732,1.011,1.045,2.327,1.538,3.513C248.436,464.273,248.296,464.387,248.157,464.501z"/>
		<path fill-rule="evenodd" clip-rule="evenodd" fill="none" d="M243.363,448.366c-1.904,1.273-3.758,1.525-5.693,1.291
			c-0.312-0.039-0.788-0.409-0.814-0.664c-0.027-0.27,0.339-0.748,0.63-0.846c0.659-0.22,1.388-0.393,2.072-0.348
			C240.74,447.879,241.91,448.14,243.363,448.366z"/>
		<path fill-rule="evenodd" clip-rule="evenodd" fill="none" d="M233.49,445.315c-0.176,1.404-1.443,3.061-2.48,3.153
			c-0.48,0.043-1.17-0.386-1.486-0.81c-0.482-0.644-0.029-1.287,0.612-1.506C231.191,445.792,232.305,445.602,233.49,445.315z"/>
		<path fill-rule="evenodd" clip-rule="evenodd" fill="none" d="M235.717,449.626c-1.688,0-3.146,0-4.621,0
			C231.721,448.549,234.01,448.479,235.717,449.626z"/>
		<path fill-rule="evenodd" clip-rule="evenodd" fill="none" d="M323.736,458.046c-0.85,1.616-2.777,2.697-4.217,2.326
			c-0.373-0.097-0.931-0.437-0.953-0.703c-0.032-0.376,0.253-0.943,0.58-1.158C320.569,457.577,322.131,457.628,323.736,458.046z"/>
		<path fill-rule="evenodd" clip-rule="evenodd" fill="none" d="M385.22,438.618c0.454,0.853,0.4,1.25-0.395,1.555
			c-1.863,0.713-3.687,1.527-5.522,2.309c-0.354,0.15-0.693,0.337-0.927,0.771c2.449-1,4.899-2,7.48-3.053
			c0.177,0.641,0.318,1.156,0.476,1.726c-2.519,0.776-4.938,1.522-7.358,2.269c0.027,0.097,0.055,0.193,0.083,0.289
			c2.436-0.691,4.872-1.383,7.449-2.114c0.176,0.624,0.321,1.14,0.515,1.822c-0.69,0.169-1.291,0.333-1.898,0.461
			c-2.849,0.598-5.72,1.099-8.537,1.817c-1.125,0.287-2.121,1.061-3.19,1.583c-2.862,1.399-5.855,1.956-8.934,0.937
			c-2.213-0.733-4.104-1.976-4.865-4.395c-0.084-0.266-0.179-0.529-0.292-0.785c-0.045-0.102-0.154-0.175-0.275-0.307
			c-0.721,0.408-1.473,0.769-2.152,1.233c-1.144,0.782-2.302,0.766-3.526,0.261c-3.812-1.575-4.343-3.633-2.912-7.114
			c0.897-2.183,2.928-3.562,5.245-3.019c1.908,0.447,3.1,1.526,3.479,3.465c0.098,0.496,0.211,0.989,0.341,1.592
			c1.13-0.426,2.209-0.712,3.175-1.217c4.167-2.18,9.828-0.369,11.76,3.29c0.621,1.175,1.369,0.985,2.354,0.513
			C379.554,441.183,382.354,439.934,385.22,438.618z M373.466,444.506c-1.462-1.978-3.215-3.02-5.027-3.878
			c-1.031-0.488-2.271-0.718-3.421-0.736c-1.698-0.027-2.675,1.127-2.812,2.93c-0.115,1.515,0.597,2.387,2.413,2.682
			C367.562,445.979,370.334,444.962,373.466,444.506z M354.522,439.722c0.617-0.832,1.196-1.273,1.268-1.787
			c0.109-0.791-0.538-1.188-1.319-1.18c-0.821,0.01-1.351,0.496-1.19,1.282C353.38,438.526,353.912,438.927,354.522,439.722z"/>
		<path fill-rule="evenodd" clip-rule="evenodd" fill="none" d="M369.71,454.943c0-1.495-0.037-2.89,0.029-4.278
			c0.015-0.291,0.354-0.697,0.642-0.815c0.615-0.254,1.295-0.354,1.938-0.515C373.521,452.166,372.274,454.909,369.71,454.943z"/>
		<path fill-rule="evenodd" clip-rule="evenodd" fill="none" d="M345.462,439.882c1.26-0.512,2.52-1.023,3.925-1.594
			c-0.095,1.226-0.176,2.267-0.27,3.47c-1.268-0.524-2.441-1.011-3.614-1.497C345.489,440.135,345.476,440.009,345.462,439.882z"/>
		<path fill-rule="evenodd" clip-rule="evenodd" fill="none" d="M392.858,494.11c-0.491-0.004-0.787-0.496-0.787-1.236
			c-0.002-1.944,3.027-5.377,5.01-5.575c0.411-0.041,0.865,0.341,1.299,0.527c-0.205,0.455-0.384,0.923-0.621,1.36
			c-0.324,0.595-0.856,1.127-1.006,1.756C396.466,492.146,394.415,494.09,392.858,494.11z"/>
		<path fill-rule="evenodd" clip-rule="evenodd" fill="none" d="M376.164,492.655c0.09-1.972,2.824-5.106,4.751-5.364
			c0.431-0.058,1.074,0.025,1.3,0.303c0.208,0.257,0.154,0.987-0.073,1.292c-1.146,1.523-2.376,2.985-3.604,4.444
			c-0.194,0.23-0.516,0.389-0.809,0.497C376.674,494.219,376.112,493.786,376.164,492.655z"/>
		<path fill-rule="evenodd" clip-rule="evenodd" fill="none" d="M403.022,490.188c0.551-0.577,1.12-1.182,1.7-1.776
			c0.126-0.129,0.286-0.225,0.552-0.429c0.208,1.054,0.473,1.97,0.558,2.901c0.181,1.989-2.208,3.712-4.041,2.945
			c-0.814-0.341-0.896-0.972-0.446-1.653c0.64-0.97,1.564-1.102,2.644-0.649c0.058-0.112,0.116-0.226,0.175-0.339
			C403.825,490.892,403.488,490.596,403.022,490.188z"/>
		<path fill-rule="evenodd" clip-rule="evenodd" fill="none" d="M396.094,479.223c-6.423,0.03-11.631-5.146-11.702-11.631
			c-0.071-6.47,5.162-11.748,11.677-11.776c6.406-0.028,11.712,5.289,11.732,11.758
			C407.821,473.929,402.531,479.192,396.094,479.223z"/>
		<path fill-rule="evenodd" clip-rule="evenodd" d="M373.466,444.506c-3.132,0.456-5.904,1.474-8.848,0.997
			c-1.816-0.295-2.528-1.167-2.413-2.682c0.138-1.803,1.114-2.957,2.812-2.93c1.15,0.019,2.39,0.248,3.421,0.736
			C370.251,441.486,372.004,442.528,373.466,444.506z"/>
		<path fill-rule="evenodd" clip-rule="evenodd" d="M354.522,439.722c-0.61-0.795-1.143-1.195-1.242-1.685
			c-0.16-0.786,0.369-1.272,1.19-1.282c0.781-0.009,1.429,0.389,1.319,1.18C355.719,438.448,355.14,438.89,354.522,439.722z"/>
	</g>
	
		<rect x="-114.5" y="433.5" display="inline" fill="#594A42" stroke="#000000" stroke-width="0.824" stroke-miterlimit="10" width="23.75" height="64.5"/>
	
		<rect x="-87.75" y="433.5" display="inline" fill="#726658" stroke="#000000" stroke-width="0.824" stroke-miterlimit="10" width="23.75" height="64.5"/>
	
		<rect x="-60.75" y="433.5" display="inline" fill="#58595B" stroke="#000000" stroke-width="0.824" stroke-miterlimit="10" width="23.75" height="64.5"/>
	
		<rect x="-33.75" y="433.5" display="inline" fill="#595875" stroke="#000000" stroke-width="0.824" stroke-miterlimit="10" width="23.75" height="64.5"/>
	
		<rect x="-6.75" y="433.5" display="inline" fill="#849EB8" stroke="#000000" stroke-width="0.824" stroke-miterlimit="10" width="23.75" height="64.5"/>
	
		<rect x="20.75" y="433.5" display="inline" fill="#C9D6E6" stroke="#000000" stroke-width="0.824" stroke-miterlimit="10" width="23.75" height="64.5"/>
	
		<rect x="48.25" y="433.5" display="inline" fill="#EB6144" stroke="#000000" stroke-width="0.824" stroke-miterlimit="10" width="23.75" height="64.5"/>
	
		<rect x="75.75" y="433.5" display="inline" fill="#E69B24" stroke="#000000" stroke-width="0.824" stroke-miterlimit="10" width="23.75" height="64.5"/>
</g>
<g id="branch">
	<g>
		<g>
			<path fill="#594A42" d="M35.61,140.991c29.596-0.563,59.192,1.41,88.788,2.255c14.093,0.563,28.469,1.127,42.843,0.563
				c16.067-0.846,32.134,0,48.2-0.563c9.301-0.564,15.314-6.295,20.951-12.496c5.919-6.483,13.529-11.181,18.603-18.228
				c4.229,5.074,11.839,8.456,17.476,12.402c-9.302,4.228-16.147,12.295-24.052,18.415c-5.826,4.509-3.946,4.698-10.711,8.081
				l0.188,0.188l-0.188,0.188c9.959,5.074,13.321,11.116,27.151,17.193c2.885,1.268-2.161-0.188,0.94,0.375
				c-7.328,6.766-7.235,6.389-14.282,13.719c-12.12-9.303-12.495-7.328-24.521-16.817c-6.729-5.311-14.938-7.517-23.958-7.234
				c-7.61,0.281-14.939,0.846-22.831,0.846c-16.349-0.283-32.696,0.845-49.045,1.127c-18.885,0.563-37.206,0.281-56.091,3.383
				c-12.684,1.69-25.65,3.664-38.334,4.791"/>
			<g>
				<path d="M35.61,142.4c41.948-0.719,83.82,3.672,125.75,2.99c10.323-0.168,20.614-0.599,30.944-0.554
					c9.145,0.04,19.186,1.127,28.144-0.986c6.911-1.63,12.316-7.066,16.939-12.103c5.986-6.52,13.443-11.404,18.823-18.513
					c-0.737,0.095-1.476,0.19-2.213,0.285c4.929,5.477,11.747,8.547,17.761,12.623c0-0.811,0-1.623,0-2.434
					c-7.421,3.578-13.34,9.163-19.453,14.565c-4.762,4.208-9.638,9.015-15.31,11.931c-0.814,0.418-0.904,1.599-0.285,2.214
					c0.062,0.062,0.125,0.125,0.188,0.188c0-0.665,0-1.329,0-1.994c-0.063,0.062-0.126,0.125-0.188,0.188
					c-0.624,0.621-0.522,1.787,0.285,2.214c4.552,2.405,8.542,5.493,12.624,8.601c2.192,1.668,4.467,3.205,6.816,4.645
					c2.487,1.523,6.183,2.411,8.354,4.242c0.332-0.802,0.664-1.604,0.996-2.406c-0.113,0.005-0.223-0.017-0.326-0.064
					c-0.236,0.876-0.474,1.751-0.711,2.626c0.226,0.023,0.45,0.046,0.675,0.068c-0.207-0.785-0.414-1.57-0.621-2.355
					c-4.871,4.486-9.685,8.949-14.282,13.719c0.569-0.074,1.138-0.148,1.707-0.221c-4.986-3.789-10.227-6.98-15.512-10.307
					c-6.431-4.049-11.734-9.218-18.971-11.892c-8.298-3.066-17.404-1.932-26.017-1.518c-10.373,0.498-20.76,0.217-31.14,0.51
					c-20.745,0.588-41.561,0.824-62.284,1.906c-20.644,1.076-40.993,5.309-61.567,7.202c-1.794,0.165-1.811,2.985,0,2.818
					c19.941-1.836,39.658-5.796,59.642-7.091c20.041-1.297,40.215-1.2,60.286-1.892c9.792-0.337,19.58-0.159,29.368-0.411
					c9.832-0.252,19.827-1.881,29.468,0.717c7.658,2.064,13.297,7.882,19.792,12.083c5.245,3.393,10.521,6.514,15.513,10.307
					c0.49,0.373,1.308,0.193,1.707-0.221c4.599-4.77,9.412-9.232,14.282-13.718c0.724-0.666,0.432-2.192-0.621-2.355
					c-0.469-0.072-0.947-0.184-1.425-0.169c-1.373,0.045-1.96,1.91-0.711,2.627c0.508,0.291,1.159,0.491,1.748,0.449
					c1.109-0.08,2.018-1.545,0.997-2.406c-1.675-1.413-4.183-2.106-6.129-3.108c-3.021-1.557-5.847-3.461-8.59-5.457
					c-4.5-3.271-8.701-6.75-13.646-9.362c0.096,0.737,0.19,1.476,0.285,2.214c0.063-0.062,0.126-0.125,0.188-0.188
					c0.544-0.541,0.544-1.453,0-1.994c-0.062-0.062-0.125-0.125-0.188-0.188c-0.095,0.738-0.189,1.477-0.285,2.214
					c5.127-2.635,9.035-6.646,13.462-10.292c6.947-5.721,13.082-12.241,21.301-16.204c1.021-0.492,0.805-1.889,0-2.434
					c-5.81-3.938-12.43-6.893-17.19-12.182c-0.665-0.739-1.697-0.396-2.213,0.285c-5.208,6.881-12.495,11.705-18.382,17.942
					c-6.253,6.625-12.332,11.842-21.883,12.145c-19.289,0.611-38.729,0.64-58.027,0.735c-39.979,0.197-79.878-3.737-119.875-3.051
					C33.794,139.613,33.791,142.432,35.61,142.4L35.61,142.4z"/>
			</g>
		</g>
		<g>
			<path fill="#726658" d="M35.422,141.179c-1.127-0.282,3.101,4.51,3.665,5.919c1.691,3.664,2.537,9.019,1.973,13.248
				c-0.563,3.664-2.818,10.711-7.328,8.456c-3.946-1.691-6.201-10.711-6.201-14.938c0-5.356,2.818-9.584,7.328-12.684"/>
			<g>
				<path d="M35.047,139.82c-0.062,0.02-0.125,0.04-0.187,0.059c-0.741,0.235-1.182,0.968-0.984,1.734
					c0.679,2.631,3.329,4.602,4.382,7.14c1.984,4.778,2.039,10.333,0.424,15.191c-1.389,4.181-5.009,4.079-7.097,0.461
					c-1.175-2.036-1.734-4.468-2.228-6.742c-1.363-6.29,1.115-11.518,6.21-15.267c1.447-1.065,0.044-3.513-1.423-2.434
					c-5.722,4.21-8.723,9.735-7.76,16.915c0.571,4.26,2.723,13.296,8.345,13.695c5.083,0.36,7.346-6.084,7.736-10.227
					c0.4-4.237-0.138-8.312-1.491-12.342c-0.889-2.645-3.72-4.569-4.383-7.14c-0.328,0.578-0.656,1.156-0.984,1.733
					c0.062-0.02,0.125-0.039,0.187-0.059C37.522,141.99,36.785,139.269,35.047,139.82L35.047,139.82z"/>
			</g>
		</g>
	</g>
</g>
<g id="Bird_3">
	<g>
		<path fill="#C9D6E6" d="M159.629,53.238c1.082-0.846,2.068-2.631,3.008-3.57c2.442-2.631,5.824-3.571,9.395-3.383
			c-1.691,0.376-3.57,2.443-4.321,3.946c2.442-0.188,4.886-1.315,7.517-1.315c-1.879,0.939-3.195,2.443-4.322,4.322"/>
		<g>
			<path d="M160.625,54.234c1.388-1.283,2.348-2.922,3.697-4.247c2.011-1.973,5.041-2.357,7.709-2.294
				c-0.125-0.923-0.25-1.845-0.375-2.768c-2.305,0.812-3.955,2.497-5.163,4.594c-0.481,0.835,0.112,2.26,1.217,2.121
				c2.533-0.319,4.961-1.171,7.517-1.315c-0.237-0.875-0.475-1.75-0.711-2.626c-2.095,1.185-3.55,2.811-4.828,4.828
				c-0.977,1.54,1.464,2.953,2.434,1.423c1.032-1.628,2.127-2.861,3.816-3.817c1.187-0.67,0.71-2.706-0.711-2.626
				c-2.574,0.145-4.973,0.995-7.517,1.315c0.405,0.707,0.812,1.414,1.217,2.121c0.818-1.42,1.866-2.73,3.479-3.299
				c1.479-0.521,1.266-2.729-0.375-2.768c-2.838-0.067-5.41,0.427-7.913,1.789c-2.41,1.311-3.55,3.787-5.485,5.577
				C157.295,53.478,159.293,55.466,160.625,54.234L160.625,54.234z"/>
		</g>
	</g>
	<g>
		<path fill="#E69B24" d="M179.924,62.727c3.759,1.597,9.959,3.664,14.093,4.604c-4.321,2.349-9.864,6.436-13.998,8.314"/>
		<g>
			<path d="M179.549,64.086c4.555,1.898,9.29,3.471,14.093,4.604c-0.112-0.858-0.224-1.717-0.336-2.576
				c-4.743,2.636-9.085,5.988-13.998,8.314c-1.643,0.777-0.211,3.207,1.422,2.434c4.914-2.327,9.256-5.678,13.998-8.314
				c1.048-0.582,0.851-2.296-0.336-2.576c-4.804-1.133-9.539-2.706-14.093-4.604C178.621,60.669,177.897,63.397,179.549,64.086
				L179.549,64.086z"/>
		</g>
	</g>
	<g>
		<path fill="#C9D6E6" d="M186.22,91.994c6.342-2.114,13.812-2.114,20.013,0.423c7.188,3.101,13.811,6.06,20.152,10.711
			c3.664,2.818,7.329,5.778,10.288,9.302c-4.65,0-8.314,0.422-12.824,1.973c-5.215,1.833-10.007,3.383-15.644,3.101
			c-2.396-0.141-4.51-0.705-6.483-1.691"/>
		<g>
			<path d="M186.595,93.353c9.914-2.986,17.963-0.357,26.985,3.9c8.308,3.92,16.006,9.259,22.097,16.173
				c0.332-0.802,0.664-1.604,0.996-2.406c-4.579,0.057-8.83,0.624-13.199,2.023c-6.923,2.216-13.938,4.662-21.041,1.551
				c-1.647-0.722-3.084,1.706-1.422,2.434c12.007,5.259,23.502-3.038,35.662-3.189c1.281-0.016,1.796-1.499,0.996-2.406
				c-6.692-7.598-15.15-13.067-24.243-17.357c-9.134-4.311-17.632-6.437-27.581-3.44C184.109,91.157,184.85,93.878,186.595,93.353
				L186.595,93.353z"/>
		</g>
	</g>
	<g>
		<g>
			<path fill="#C9D6E6" d="M173.885,84.004c10.992,5.637,20.012,12.402,24.804,23.958c5.355,11.838,4.228,25.931-5.637,35.233
				c-8.456,7.61-21.704,10.429-32.696,7.61c-13.53-3.382-21.422-16.348-23.113-29.596c-1.691-15.221,6.483-24.804,17.194-34.669
				c-32.133-21.704,19.448-50.735,26.213-20.294C182.623,74.138,178.677,78.648,173.885,84.004
				C174.167,83.722,173.604,84.286,173.885,84.004"/>
			<g>
				<path d="M173.174,85.221c13.184,6.873,23.751,16.441,26.8,31.585c3.651,18.141-10.53,31.72-27.626,33.521
					c-16.322,1.72-28.478-8.907-32.694-24.051c-4.495-16.144,4.554-28.316,15.779-38.739c0.71-0.659,0.43-1.715-0.285-2.213
					c-5.757-4.019-11.173-9.91-9.34-17.442c1.354-5.567,6.588-9.679,11.635-11.782c5.161-2.151,11.185-2.319,15.974,0.79
					c3.018,1.959,4.67,5.403,5.633,8.739c2.093,7.25-1.576,12.233-6.16,17.379c-1.081,1.213,0.264,2.935,1.707,2.213h0.001
					c1.626-0.813,0.198-3.244-1.423-2.434v0c-1.626,0.813-0.198,3.244,1.422,2.434h0.001c1.626-0.813,0.198-3.244-1.423-2.434v0
					c0.569,0.738,1.139,1.476,1.707,2.213c4.121-4.626,7.698-9.109,7.676-15.567c-0.015-4.33-1.998-8.881-4.649-12.22
					c-4.695-5.914-13.065-6.434-19.769-4.357c-6.794,2.106-12.985,7.344-15.049,14.275c-2.58,8.669,4.085,16.054,10.636,20.625
					c-0.096-0.738-0.19-1.476-0.285-2.213c-6.073,5.638-11.864,11.609-15.285,19.268c-3.347,7.494-3.006,15.8-0.847,23.553
					c4.521,16.239,18.354,25.875,35.039,24.782c17.072-1.119,30.579-13.604,30.924-30.925c0.364-18.313-13.683-31.62-28.676-39.435
					C172.986,81.948,171.562,84.38,173.174,85.221L173.174,85.221z"/>
			</g>
		</g>
		<g>
			<g>
				<path fill="#EB6144" d="M156.861,143.666c10.447,2.272,20.916,1.296,28.598-6.785c6.149-6.47,9.025-16.338,7.031-25.014
					c-2.067-8.993-10.675-14.581-19.31-15.992c-9.317-1.522-18.201,4.768-21.817,13.045c-4.119,9.43,0.689,19.402,8.712,24.848
					c9.258,6.285,20.04,0.262,24.801-8.469c4.229-7.754,0.871-18.283-7.729-21.326c-7.944-2.811-15.36,2.021-15.971,10.372
					c-0.661,9.05,7.807,10.881,14.662,8.464c1.702-0.6,0.969-3.324-0.75-2.718c-3.976,1.402-8.585,2.345-10.578-2.39
					c-1.336-3.174-0.213-7.001,1.999-9.446c3.711-4.102,9.787-2.318,13.396,0.718c3.8,3.198,4.689,8.001,3.461,12.604
					c-2.916,10.935-15.386,15.057-24.037,8.171c-7.78-6.192-8.478-16.934-2.52-24.512c10.592-13.47,32.461-4.738,33.545,11.319
					c0.481,7.133-3.104,14.351-7.902,19.398c-6.423,6.758-16.386,6.833-24.841,4.995
					C155.839,140.563,155.086,143.28,156.861,143.666L156.861,143.666z"/>
			</g>
		</g>
	</g>
	<path fill="#58595B" stroke="#000000" stroke-width="0.5637" stroke-miterlimit="10" d="M176.425,59.861
		c0.216,0.25,0.988,1.131,1.466,2.177c0.433,0.949,1.053,1.964,1.212,2.614c0.212,0.865,0.527,1.962,0.635,2.818
		c0.153,1.236,0.119,2.138,0.069,2.678c-0.065,0.715-0.379,2.166-0.704,3.383c-0.389,1.448-1.075,2.647-1.075,2.647l-32.715-4.383
		c0,0-0.042-1.408,0.243-3.125c0.176-1.068,0.765-2.554,0.975-3.1c0.232-0.61,0.208-0.775,1.114-2.184
		c0.328-0.511,1.394-1.619,2.09-2.394l26.96-1.203"/>
	<g>
		<path fill="#FFFFFF" d="M170.999,63.243c-1.361-0.846-3.102-1.174-4.604-0.422c-6.013,2.63-0.188,8.832,4.134,6.013
			c1.691-1.127,2.397-4.557,0.424-5.637"/>
		<g>
			<path d="M171.71,62.026c-2.94-1.704-6.821-1.135-8.739,1.833c-1.435,2.218,0.007,4.807,1.906,6.129
				c2.155,1.499,5.392,1.244,7.211-0.655c1.936-2.019,2.093-5.774-0.425-7.353c-1.544-0.969-2.958,1.471-1.422,2.434
				c1.024,0.644,0.378,2.612-0.424,3.204c-1.076,0.793-2.448,0.606-3.518-0.063c-0.75-0.469-1.355-1.421-0.896-2.272
				c0.945-1.749,3.418-1.67,4.884-0.821C171.863,65.373,173.282,62.937,171.71,62.026L171.71,62.026z"/>
		</g>
	</g>
	<g>
		<g>
			<path d="M168.65,62.026c-1.813,0.628-2.657,2.328-1.828,4.109c0.71,1.525,2.421,2.49,4.082,2.417
				c0.578-0.025,1.256-0.406,1.359-1.035c0.217-1.322,0.07-2.591-0.707-3.717c-0.436-0.631-1.228-0.916-1.928-0.505
				c-0.625,0.366-0.943,1.295-0.506,1.928c0.329,0.477,0.52,0.953,0.422,1.545c0.453-0.345,0.906-0.69,1.359-1.035
				c-0.625,0.027-1.184-0.269-1.442-0.641c-0.008-0.011-0.21-0.419-0.114-0.174c-0.03-0.084-0.055-0.171-0.072-0.26
				c0.019,0.16,0.025,0.157,0.019-0.009c-0.027,0.168-0.021,0.171,0.02,0.01c-0.01,0.076-0.042,0.139-0.099,0.189
				c0.118-0.14,0.02-0.049,0.186-0.106C171.106,64.153,170.373,61.429,168.65,62.026L168.65,62.026z"/>
		</g>
	</g>
</g>
<g id="Bird_2">
	<g>
		<path fill="#849EB8" d="M133.435,55.098c1.127,0.188-1.248-3.428-1.991-4.115c-1.314-1.217-2.067-2.917-7.141-4.721
			c0.918,1.393,0,3.243,0,5.31c-1.691-1.127-2.818-0.866-4.51-1.806l0,0c-0.939,1.3-0.188,3.998-0.939,6.104"/>
		<g>
			<path d="M133.81,56.457c3.097-0.416-0.061-4.902-0.886-5.914c-2.233-2.74-4.948-4.399-8.246-5.64
				c-1.302-0.49-2.023,1.077-1.592,2.07c0.573,1.319-0.104,3.178-0.192,4.598c0.707-0.406,1.414-0.811,2.12-1.217
				c-1.443-0.826-3.02-1.099-4.51-1.806c-0.66-0.314-1.559-0.221-1.928,0.505c-1.035,2.036-0.505,4.286-1.082,6.441
				c-0.47,1.758,2.249,2.503,2.719,0.749c0.476-1.781-0.026-4.149,0.797-5.768c-0.643,0.168-1.285,0.337-1.928,0.505
				c1.478,0.702,3.087,0.992,4.51,1.806c0.971,0.555,2.054-0.163,2.12-1.217c0.138-2.186,0.704-3.957-0.192-6.021
				c-0.53,0.69-1.061,1.38-1.592,2.07c2.199,0.828,4.094,1.791,5.703,3.514c0.469,0.501,0.969,0.967,1.379,1.52
				c0.218,0.306,0.427,0.618,0.624,0.938c0.952,1.482-0.147,0.359,1.426,0.147C131.266,53.98,132.033,56.696,133.81,56.457
				L133.81,56.457z"/>
		</g>
	</g>
	<g>
		<g>
			<path fill="#849EB8" d="M139.676,89.067c19.167,11.838,39.462,42.843,14.094,58.91c-9.865,6.201-22.55,9.583-33.824,5.636
				c-11.274-3.945-23.112-12.401-25.368-24.521c-3.1-17.193,11.275-30.159,24.24-38.333c-13.247-5.355-17.193-26.495-2.536-33.26
				c13.53-6.201,28.187-1.127,31.569,13.812C149.542,78.92,146.159,85.403,139.676,89.067"/>
			<g>
				<path d="M138.965,90.284c10.813,6.85,20.17,17.461,24.041,29.799c5.294,16.87-7.875,28.028-22.844,32.42
					c-16.333,4.793-37.729-4.496-43.54-21.055c-5.963-16.993,10.273-31.394,22.906-39.474c0.804-0.514,1.027-1.979,0-2.434
					c-6.311-2.792-10.277-8.596-11.089-15.408c-1.005-8.439,4.454-14.248,12.041-16.724c7.413-2.419,15.572-0.868,21.12,4.665
					c7.744,7.722,6.617,20.099-2.636,25.776c-1.546,0.949-0.132,3.387,1.422,2.434c9.599-5.889,11.368-16.241,6.316-25.96
					c-4.662-8.972-15.061-11.906-24.419-10.271c-9.042,1.58-15.778,7.707-16.701,16.947c-0.868,8.698,4.676,17.504,12.523,20.975
					c0-0.811,0-1.623,0-2.434c-14.169,9.062-28.612,22.891-24.585,41.307c3.748,17.144,26.505,28.187,42.65,25.387
					c16.249-2.817,32.934-13.729,30.595-32.082c-1.91-14.988-14.072-28.508-26.379-36.303
					C138.847,86.875,137.434,89.315,138.965,90.284L138.965,90.284z"/>
			</g>
		</g>
		<g>
			<g>
				<path fill="#EB6144" d="M113.782,144.417c10.547,2.25,21.408,3.039,30.33-4.01c6.617-5.229,11.585-15.703,10.104-24.18
					c-1.774-10.162-10.943-15.418-20.4-17.253c-10.592-2.055-18.833,3.57-22.615,13.268c-3.765,9.654,1.225,18.382,10.236,22.311
					c9.035,3.939,16.839-0.197,20.843-8.719c3.291-7.006,1.983-16.084-6.139-18.922c-7.108-2.483-15.464,0.966-16.01,9.096
					c-0.229,3.394,1.705,6.629,4.415,8.484c3.906,2.674,8.334-0.488,11.089-3.175c1.303-1.271-0.691-3.263-1.992-1.993
					c-3.646,3.556-8.229,4.751-10.309-0.787c-1.646-4.381,1.517-8.113,5.504-9.402c3.283-1.062,6.97,0.254,9.509,2.355
					c3.376,2.795,3.271,7.081,2.221,10.92c-2.504,9.16-10.364,12.911-18.925,9.178c-9.328-4.067-10.619-13.625-6.176-21.931
					c4.85-9.068,14.741-9.404,23.452-6.387c8,2.77,13.188,9.187,12.617,17.753c-0.49,7.342-5.584,14.872-11.512,18.921
					c-7.359,5.027-17.362,3.49-25.493,1.755C112.758,141.321,112.004,144.039,113.782,144.417L113.782,144.417z"/>
			</g>
		</g>
	</g>
	<path fill="#58595B" stroke="#000000" stroke-width="0.5637" stroke-miterlimit="10" d="M110.673,64.095l28.29-4.262
		c0,0,1.895,1.406,2.534,2.048c0.476,0.478,1.433,1.743,1.878,2.349c0.345,0.467,1.027,1.591,1.315,2.095
		c0.332,0.579,0.857,1.926,1.081,2.509c0.166,0.434,0.423,1.503,0.423,1.503l-37.302,6.427c0,0-0.496-1.871-0.468-2.622
		c0.019-0.516-0.139-1.787-0.094-2.302c0.044-0.506-0.017-1.556,0.094-2.042c0.09-0.393,0.155-1.099,0.282-1.471
		c0.132-0.388,0.315-1.201,0.47-1.56c0.152-0.353,0.373-0.971,0.564-1.268C109.995,65.103,110.673,64.095,110.673,64.095z"/>
	<g>
		<path fill="#FFFFFF" d="M137.583,65.666c-0.087-1.106-0.581-1.756-1.106-2.284c-2.744-2.761-10.476,2.923-4.108,6.214
			c1.328,0.687,3.526,0.06,4.651-1.612C137.395,67.427,137.453,66.292,137.583,65.666"/>
		<g>
			<path d="M138.904,65.666c-0.351-2.718-2.348-4.671-5.161-4.264c-2.208,0.319-4.276,1.897-4.989,4.029
				c-0.857,2.561,1.507,4.924,3.765,5.628c1.412,0.44,3.066-0.115,4.221-0.931c1.508-1.064,1.812-2.405,2.118-4.111
				c0.3-1.667-2.247-2.379-2.549-0.703c-0.141,0.782-0.118,1.659-0.662,2.282c-0.571,0.653-1.558,1.086-2.425,0.914
				c-1.144-0.227-2.245-1.403-1.856-2.563c0.662-1.979,4.542-3.023,4.896-0.28C136.477,67.332,139.123,67.353,138.904,65.666
				L138.904,65.666z"/>
		</g>
	</g>
	<g>
		<path fill="#FFFFFF" d="M117.726,65.452c-3.382-0.188-7.075,3.15-3.382,6.201c4.322,3.57,9.959-6.765,3.006-6.201"/>
		<g>
			<path d="M117.726,64.042c-3.278-0.073-7.27,2.485-6.111,6.209c0.917,2.944,4.205,4.263,6.872,3
				c1.999-0.946,3.361-3.237,3.539-5.386c0.225-2.71-2.332-3.969-4.676-3.823c-1.805,0.112-1.816,2.932,0,2.818
				c0.61-0.038,1.191-0.057,1.695,0.258c0.069,0.043,0.161,0.224,0.168,0.587c0.017,0.949-0.731,2.029-1.525,2.725
				c-0.902,0.792-1.812,0.7-2.682-0.071c-2.191-1.939,0.894-3.54,2.72-3.5C119.544,66.901,119.54,64.083,117.726,64.042
				L117.726,64.042z"/>
		</g>
	</g>
	<g>
		<g>
			<path d="M114.721,68.69c-0.079-0.03,0.124,0.181-0.034-0.034c0.075,0.149,0.094,0.168,0.057,0.056
				c0.036,0.097,0.066,0.195,0.09,0.294c0.08,0.293,0.037,0.885-0.021,1.331c0.875-0.237,1.751-0.474,2.626-0.711
				c-0.279-0.392-0.589-0.744-0.927-1.086c-0.147-0.148-0.295-0.295-0.44-0.445c-0.062-0.064-0.122-0.13-0.18-0.198
				c0.1,0.139,0.115,0.151,0.044,0.038c-0.916-1.568-3.352-0.15-2.434,1.423c0.207,0.354,0.501,0.657,0.788,0.947
				c0.153,0.154,0.307,0.307,0.458,0.463c0.041,0.042,0.39,0.469,0.257,0.281c0.857,1.206,2.444,0.684,2.626-0.711
				c0.241-1.852-0.307-3.651-2.162-4.365c-0.718-0.276-1.545,0.299-1.733,0.984C113.518,67.752,114.005,68.415,114.721,68.69
				L114.721,68.69z"/>
		</g>
	</g>
	<g>
		<g>
			<path d="M131.068,66.811c0.095,0.014,0.188,0.032,0.28,0.057c0.386,0.091-0.181-0.119,0.149,0.057
				c0.328,0.176-0.161-0.171,0.101,0.081c0.265,0.254-0.122-0.213,0.067,0.103c0.072,0.145,0.075,0.145,0.009,0.003
				c0.046,0.121,0.07,0.248,0.096,0.374c-0.061-0.3-0.011,0.129-0.011,0.167c0.001,0.145-0.017,0.288-0.034,0.431
				c0.875-0.237,1.751-0.474,2.626-0.711c-0.477-0.872-1.309-1.399-1.912-2.164c-0.477-0.604-1.497-0.495-1.992,0
				c-0.591,0.59-0.476,1.391,0,1.993c0.24,0.305,0.514,0.571,0.801,0.833c0.329,0.302,0.508,0.464,0.67,0.76
				c0.302,0.552,0.995,0.812,1.592,0.647c0.66-0.182,0.957-0.726,1.034-1.359c0.223-1.824-0.835-3.663-2.726-3.99
				c-0.757-0.131-1.516,0.19-1.734,0.984C129.896,65.762,130.311,66.68,131.068,66.811L131.068,66.811z"/>
		</g>
	</g>
	<g>
		<g>
			<path fill="#E69B24" d="M124.303,71.089c-0.939,3.007-4.321,6.577-5.638,9.583c2.255,0.188,10.148-2.631,11.651-3.57"/>
			<g>
				<path d="M122.943,70.714c-1.211,3.392-3.961,6.007-5.495,9.247c-0.458,0.966,0.088,2.084,1.217,2.121
					c2.087,0.067,4.25-0.705,6.211-1.324c2.061-0.652,4.271-1.347,6.151-2.438c1.571-0.912,0.152-3.348-1.422-2.434
					c-1.522,0.884-3.277,1.417-4.937,1.977c-1.86,0.627-4.011,1.465-6.004,1.401c0.405,0.707,0.812,1.414,1.217,2.121
					c1.647-3.479,4.474-6.263,5.78-9.92C126.274,69.748,123.551,69.016,122.943,70.714L122.943,70.714z"/>
			</g>
		</g>
		<g>
			<path fill="#E69B24" d="M124.303,71.089c1.315,2.443,3.758,5.262,6.014,6.013"/>
			<g>
				<path d="M123.086,71.8c1.533,2.767,3.812,5.536,6.855,6.661c1.709,0.631,2.439-2.093,0.75-2.718
					c-2.301-0.85-4.033-3.311-5.172-5.366C124.639,68.788,122.204,70.209,123.086,71.8L123.086,71.8z"/>
			</g>
		</g>
	</g>
</g>
<g id="Bird_1">
	<g>
		<path fill="#595875" d="M89.3,55.87c1.127-3.57-10.096-6.203-12.538-5.639c1.315,0.939,3.006,1.691,3.946,3.007
			c-2.631-0.188-5.262,0.375-7.517,1.691c1.879,1.127,5.073,1.879,6.953,2.443"/>
		<g>
			<path d="M90.659,56.245c1.136-5.777-10.301-8.023-14.271-7.373c-1.302,0.213-1.249,1.971-0.337,2.576
				c1.301,0.862,2.615,1.606,3.661,2.787c0.332-0.802,0.665-1.604,0.997-2.406c-2.957-0.091-5.605,0.509-8.228,1.883
				c-0.923,0.483-0.913,1.947,0,2.434c2.3,1.226,4.8,1.863,7.29,2.585c1.75,0.507,2.491-2.213,0.749-2.718
				c-2.248-0.651-4.538-1.194-6.616-2.301c0,0.811,0,1.623,0,2.434c2.222-1.164,4.297-1.575,6.805-1.499
				c1.298,0.04,1.772-1.531,0.997-2.406c-1.216-1.372-2.716-2.223-4.231-3.227c-0.112,0.858-0.225,1.717-0.337,2.576
				c1.67-0.273,11.288,1.447,10.805,3.906C87.592,57.271,90.308,58.027,90.659,56.245L90.659,56.245z"/>
		</g>
	</g>
	<g>
		<path fill="#E69B24" d="M67.914,72.968c0,0-0.219,0.939-13.514,6.765c2.443,1.503,5.261,2.818,8.08,3.194
			c1.872,0.25,8.694,1.503,8.694,1.503"/>
		<g>
			<path d="M66.555,72.594c0.174-0.489,0.416-0.609,0.229-0.474c-0.583,0.424-1.233,0.765-1.864,1.11
				c-3.625,1.984-7.454,3.623-11.232,5.286c-1.005,0.442-0.83,1.941,0,2.434c5.346,3.171,11.119,3.741,17.111,4.84
				c1.776,0.326,2.535-2.39,0.749-2.718c-5.718-1.049-11.335-1.528-16.438-4.556c0,0.811,0,1.623,0,2.434
				c4.101-1.805,8.281-3.57,12.17-5.812c0.757-0.437,1.68-0.923,1.991-1.795C69.884,71.626,67.16,70.894,66.555,72.594
				L66.555,72.594z"/>
		</g>
	</g>
	<g>
		<g>
			<path fill="#595875" d="M75.071,101.436c-4.979-1.033-10.429,1.785-14.751,3.852c-7.422,3.665-11.744,9.866-15.409,17.006
				c-1.597,3.1-2.912,6.294-4.134,9.489c1.973-2.067,5.919-1.879,8.55-2.255c3.006-0.563,6.013-0.751,9.02-1.597
				c1.222-0.375,2.443-0.845,3.289-1.785"/>
			<g>
				<path d="M75.071,100.027c-7.646-1.01-16.202,3.602-21.872,8.395c-6.833,5.776-10.628,14.864-13.781,22.988
					c-0.572,1.474,1.39,2.134,2.355,1.371c2.697-2.131,8.155-1.966,11.536-2.455c3.402-0.492,6.638-0.947,9.322-3.183
					c1.398-1.165-0.607-3.147-1.993-1.993c-5.746,4.787-15.009,1.015-20.858,5.638c0.785,0.457,1.57,0.914,2.355,1.371
					c2.739-7.058,5.945-14.031,11.015-19.741c4.942-5.566,14.396-10.565,21.92-9.572C76.869,103.083,76.846,100.261,75.071,100.027
					L75.071,100.027z"/>
			</g>
		</g>
		<g>
			<path fill="#595875" d="M103.281,91.148c10.429,5.074,21.526,12.221,24.625,24.059c3.383,11.838-2.817,23.395-12.12,31.005
				c-16.912,13.812-53.272,14.093-53.836-14.657c-0.282-15.502,10.429-27.341,21.421-36.924
				c-15.784-6.482-21.421-25.368-5.355-35.515c13.248-8.174,27.905,0,31.569,14.375c1.973,8.174-0.723,11.97-6.359,17.607"/>
			<g>
				<path d="M102.569,92.365c7.435,3.669,14.697,7.983,19.825,14.655c6.019,7.83,6.254,17.968,2.017,26.618
					c-6.047,12.344-19.479,19.106-32.688,20.161c-11.309,0.902-23.364-3.309-27.226-14.849
					c-5.772-17.248,7.974-32.852,19.871-43.322c0.632-0.556,0.526-1.858-0.285-2.213c-6.812-2.988-12.242-8.128-13.974-15.541
					c-2.026-8.673,4.658-16.184,12.156-19.321c8.176-3.421,16.951,0.278,22.083,6.978c2.705,3.532,4.168,7.99,4.466,12.39
					c0.343,5.079-3.301,8.847-6.584,12.182c-1.276,1.296,0.716,3.29,1.993,1.993c3.25-3.301,6.227-6.636,7.203-11.284
					c1.023-4.878-0.941-10.222-3.202-14.46c-4.676-8.765-14.496-13.255-24.114-11.315C74.75,56.923,67.19,65.493,66.994,75.003
					c-0.196,9.515,7.531,17.277,15.667,20.845c-0.095-0.738-0.19-1.476-0.285-2.213c-13.278,11.686-26.572,28.209-20.271,47.038
					c4.28,12.787,18.472,16.835,30.636,15.863c15.143-1.209,29.271-10.057,35.368-24.226c8.431-19.588-8.232-34.539-24.117-42.378
					C102.368,89.129,100.939,91.561,102.569,92.365L102.569,92.365z"/>
			</g>
		</g>
		<g>
			<g>
				<path fill="#EB6144" d="M83.936,144.947c9.524,0.366,18.729-0.819,25.854-7.688c6.472-6.24,9.524-16.456,5.78-24.902
					c-3.522-7.945-11.604-13.222-20.386-12.196c-7.561,0.883-16.272,7.223-16.827,15.36c-0.637,9.328,7.539,17.411,16.722,17.398
					c8.709-0.012,16.12-10.549,12.114-18.592c-3.596-7.221-13.545-10.746-18.049-2.312c-1.103,2.065-1.503,5.434,0.151,7.35
					c2.467,2.859,6.231,1.983,9.258,0.585c1.648-0.761,0.216-3.19-1.423-2.434c-1.9,0.877-5.672,2.232-6.1-1.367
					c-0.146-1.228,0.426-2.484,0.98-3.522c2.517-4.714,8.018-2.729,10.89,0.164c7.117,7.169-1.037,17.3-9.261,17.311
					c-7.897,0.01-13.922-9.255-12.046-16.404c1.486-5.663,7.533-9.245,12.807-10.558c13.041-3.246,22.112,11.034,19.255,22.41
					c-3.446,13.724-17.54,17.045-29.719,16.578C82.118,142.059,82.125,144.878,83.936,144.947L83.936,144.947z"/>
			</g>
		</g>
	</g>
	<path fill="#58595B" stroke="#000000" stroke-width="0.5637" stroke-miterlimit="10" d="M72.205,66.625
		c-0.222,0.266-0.708,1.254-1.157,2.334c-0.408,0.979-0.786,2.034-0.91,2.693c-0.165,0.879-0.264,1.816-0.311,2.678
		c-0.067,1.243-0.027,2.332,0.076,2.865c0.136,0.708,0.42,2.006,0.893,3.195c0.563,1.415,1.315,2.678,1.315,2.678l36.595-6.859
		c0,0-0.188-1.268-0.658-2.959c-0.292-1.051-0.704-2.618-0.987-3.147c-0.315-0.591-0.234-0.564-0.986-2.161
		c-0.264-0.562-1.104-1.588-1.785-2.443L72.205,66.625"/>
	<g>
		<path fill="#FFFFFF" d="M77.326,68.646c-1.316,0.54-2.631,3.007-2.255,4.51c0.751,5.45,8.832,3.571,7.329-1.691
			C81.647,69.398,79.393,68.458,77.326,68.646"/>
		<g>
			<path d="M76.614,67.429c-2.665,1.348-3.665,4.988-2.448,7.607c1.05,2.261,3.441,3.126,5.789,2.65
				c2.385-0.483,3.996-2.661,4.039-5.025c0.064-3.543-3.479-5.604-6.668-5.424c-1.807,0.102-1.817,2.921,0,2.818
				c1.734-0.098,3.746,0.599,3.85,2.605c0.057,1.109-0.74,1.926-1.74,2.248c-3.178,1.021-3.977-3.741-1.398-5.045
				C79.659,69.042,78.232,66.611,76.614,67.429L76.614,67.429z"/>
		</g>
	</g>
	<g>
		<g>
			<path d="M75.635,72.636c0.944,0.141,1.937,0.614,1.972,1.647c0.707-0.406,1.414-0.811,2.121-1.217
				c-0.787-0.4-1.521-0.856-2.158-1.471c-1.029-0.994-2.688,0.001-2.355,1.371c0.319,1.315,1.295,2.376,2.526,2.909
				c0.705,0.305,1.506,0.216,1.928-0.505c0.353-0.602,0.2-1.623-0.505-1.928c-0.604-0.261-1.072-0.57-1.231-1.225
				c-0.785,0.457-1.57,0.914-2.355,1.371c0.805,0.776,1.733,1.405,2.728,1.911c0.91,0.463,2.159-0.092,2.121-1.217
				c-0.077-2.257-1.832-4.036-4.042-4.365c-0.759-0.113-1.512,0.177-1.733,0.984C74.466,71.574,74.874,72.522,75.635,72.636
				L75.635,72.636z"/>
		</g>
	</g>
</g>
</svg>
