<?xml version="1.0" encoding="utf-8"?>
<!-- Generator: Adobe Illustrator 16.0.4, SVG Export Plug-In . SVG Version: 6.00 Build 0)  -->
<!DOCTYPE svg PUBLIC "-//W3C//DTD SVG 1.1//EN" "http://www.w3.org/Graphics/SVG/1.1/DTD/svg11.dtd">
<svg version="1.1" id="Layer_1" xmlns="http://www.w3.org/2000/svg" xmlns:xlink="http://www.w3.org/1999/xlink" x="0px" y="0px"
	 width="2500px" height="2500px" viewBox="0 0 2500 2500" enable-background="new 0 0 2500 2500" xml:space="preserve">
<path fill="#FF533D" d="M1257.022,7.027C566.663,7.027,7.025,566.666,7.025,1257.025c0,690.358,559.638,1249.997,1249.998,1249.997
	s1250.003-559.639,1250.003-1249.997C2507.02,566.666,1947.371,7.027,1257.022,7.027z M923.521,1861.342H649.071V974.673h274.449
	V1861.342z M784.988,858.557c-89.633,0-162.295-73.255-162.295-163.605c0-90.36,72.673-163.61,162.295-163.61
	s162.285,73.25,162.285,163.61C947.278,785.307,874.615,858.557,784.988,858.557z M1952.021,1861.342h-273.119v-465.428
	c0-127.653-48.488-198.91-149.427-198.91c-109.855,0-167.246,74.214-167.246,198.91v465.428H1099V974.673h263.229v119.419
	c0,0,79.18-146.465,267.19-146.465c188.015,0,322.606,114.801,322.606,352.289L1952.021,1861.342z"/>
</svg>
